<svg width="500" height="500" viewBox="0 0 500 500" fill="none" xmlns="http://www.w3.org/2000/svg">
<g clip-path="url(#clip0_5_3)">
<path d="M0 267.6V232.6C0.75 227 1.4 221.35 2.2 215.75C8.85783 167.039 29.9067 121.424 62.65 84.75C99.9315 41.8882 150.934 13.2945 206.95 3.85C216.05 2.25 225 1.25 234.4 0H265.65C267.078 0.397215 268.531 0.697894 270 0.9C309.381 3.61951 347.471 16.0756 380.85 37.15C411.066 55.4852 436.995 80.0915 456.886 109.307C476.777 138.522 490.167 171.666 496.15 206.5C497.75 215.1 498.75 223.8 500 232.45V267.45C499.25 273.05 498.65 278.7 497.8 284.3C490.731 335.789 467.621 383.742 431.75 421.35C393.531 462.486 342.341 489.246 286.75 497.15C279.7 498.2 272.65 499.05 265.6 500H234.4C228.45 499.3 222.5 498.65 216.6 497.85C164.18 490.641 115.381 467.043 77.1796 430.431C38.9779 393.819 13.3292 346.066 3.9 294C2.3 285 1.3 276.4 0 267.6ZM234.05 238.15V141.2L150.55 136.2C139.787 169.077 133.94 203.364 133.2 237.95H234.05V238.15ZM349.4 136.35L265.85 141.35V238H366.8C366.007 203.448 360.144 169.199 349.4 136.35ZM150.55 363.6L234.1 358.6V270H133.5C134.878 301.833 140.615 333.326 150.55 363.6ZM366 270H266V358.75L349.1 363.75C357.3 345 367.65 287.7 366 270ZM118.2 132.05C103.2 129.2 88.65 126.35 73.95 123.85C73.0785 123.992 72.2479 124.32 71.5145 124.812C70.7811 125.304 70.1623 125.948 69.7 126.7C52.6002 151.289 40.894 179.217 35.35 208.65C33.5 218.25 32.7 228.05 31.4 237.9H101.4C105.5 183.3 105.5 183.3 118.2 132.05ZM398.2 238H468.2C466.95 228.5 466.05 219.35 464.45 210.3C458.93 180.01 446.996 151.25 429.45 125.95C428.927 124.972 428.06 124.222 427.017 123.843C425.975 123.465 424.829 123.485 423.8 123.9C418.8 125.1 413.8 126 408.55 126.95L380.95 131.95C391.476 166.364 397.361 202.029 398.45 238H398.2ZM118.2 368C108.572 336.056 102.979 303.033 101.55 269.7H31.55C33 278.45 34.1 286.95 35.8 295.3C41.6798 323.327 53.0667 349.908 69.3 373.5C69.8283 374.562 70.7167 375.401 71.8066 375.868C72.8965 376.335 74.1169 376.4 75.25 376.05C80.25 374.8 85.25 373.95 90.25 373.05L118.2 368ZM381.3 368C396.3 370.9 411.3 373.75 425.8 376.25C426.663 376.101 427.483 375.77 428.208 375.279C428.932 374.787 429.543 374.147 430 373.4C443.698 353.821 453.852 331.99 460 308.9C463.35 296.15 465.4 283.1 468.15 269.8H398.1C396.719 303.048 391.158 335.99 381.55 367.85L381.3 368ZM163.3 394.05C174.95 426.75 213.3 465.3 234.15 465.75V390.4L163.3 394.05ZM265.9 109.55L336.7 105.9C325.3 73.5 286.5 34.55 265.85 34.25V109.55H265.9ZM234.15 33.15C198.1 45.55 179.15 73.75 162.55 105.85L234.15 109.55V33.15ZM337.45 394.1L265.8 390.45V466.85C301.85 454.6 320.6 426.3 337.45 394.1ZM405 96C386.87 77.7945 365.681 62.918 342.4 52.05C347.9 60.8 353.05 68.45 357.4 76.45C361.75 84.45 366.05 93.05 370.45 101.45L405 96ZM157.15 447.4C152.15 439.15 146.75 431.5 142.15 423.5C137.55 415.5 133.55 406.9 129.15 398.5L95.45 404.15C106.85 417.8 140.5 441.5 157.15 447.4ZM156.35 52.4C133.553 63.3108 112.801 78.0589 95 96L128.55 101.55L156.35 52.4ZM342.9 446.85C365.922 436.748 386.824 422.378 404.5 404.5C403.501 404.03 402.464 403.645 401.4 403.35C392.75 401.9 384.05 400.9 375.5 399C374.74 398.725 373.929 398.617 373.124 398.682C372.318 398.747 371.536 398.984 370.829 399.378C370.123 399.771 369.51 400.311 369.03 400.962C368.551 401.613 368.216 402.359 368.05 403.15C363.35 412.75 358.05 422.2 353.05 431.5C350 436.85 346.3 441.75 342.9 446.85Z" fill="currentColor"/>
</g>
<defs>
<clipPath id="clip0_5_3">
<rect width="500" height="500" fill="white"/>
</clipPath>
</defs>
</svg>
